<svg width="602" height="140" viewBox="0 0 602 140" fill="none" xmlns="http://www.w3.org/2000/svg">
<path d="M70.3917 80.3649C76.1424 80.3649 80.8042 75.7031 80.8042 69.9524C80.8042 64.2018 76.1424 59.5399 70.3917 59.5399C64.641 59.5399 59.9792 64.2018 59.9792 69.9524C59.9792 75.7031 64.641 80.3649 70.3917 80.3649Z" fill="#159ECB"/>
<path d="M41.2367 90.6549L38.9325 90.0658C21.8175 85.7433 12 78.3933 12 69.9291C12 61.4591 21.8233 54.1149 38.9325 49.7924L41.2367 49.2091L41.8842 51.4899C43.614 57.4615 45.8303 63.2812 48.5108 68.8908L49.0067 69.9291L48.5108 70.9674C45.8275 76.5849 43.605 82.4066 41.8842 88.3799L41.2367 90.6549ZM37.8708 55.1008C24.8683 58.7641 16.8825 64.3524 16.8825 69.9291C16.8825 75.4941 24.8625 81.0883 37.8708 84.7458C39.4633 79.6824 41.3883 74.7299 43.6167 69.9291C41.3722 65.1203 39.4526 60.1664 37.8708 55.1008ZM99.5408 90.6549L98.8992 88.3683C97.1648 82.3955 94.9466 76.574 92.2667 70.9616L91.7708 69.9291L92.2667 68.8849C94.95 63.2791 97.1608 57.4516 98.8992 51.4783L99.5408 49.2033L101.845 49.7866C118.966 54.1091 128.778 61.4533 128.778 69.9291C128.778 78.3991 118.96 85.7433 101.845 90.0658L99.5408 90.6549ZM97.1492 69.9291C99.4825 74.9808 101.425 79.9508 102.907 84.7458C115.915 81.0883 123.901 75.4941 123.901 69.9291C123.901 64.3524 115.921 58.7699 102.907 55.1008C101.316 60.1648 99.3924 65.1184 97.1492 69.9291Z" fill="#159ECB"/>
<path d="M37.8358 55.0774L37.1942 52.8024C32.3758 35.8391 33.8342 23.6883 41.2017 19.4533C48.4058 15.2824 59.9967 20.2116 72.1358 32.6658L73.7925 34.3691L72.1358 36.0666C67.8243 40.5506 63.8836 45.377 60.3525 50.4983L59.6933 51.4433L58.55 51.5366C52.3409 52.0243 46.1819 53.0173 40.1342 54.5058L37.8358 55.0774ZM47.0642 22.8249C45.7575 22.8249 44.6025 23.1108 43.6283 23.6708C38.7983 26.4533 37.9467 36.1424 41.2717 49.2208C46.4692 48.0716 51.7133 47.2491 56.9983 46.7883C60.058 42.4486 63.3958 38.3118 66.9908 34.4041C59.39 27.0133 52.215 22.8249 47.0642 22.8249ZM93.7133 121.898C86.7833 121.898 77.8817 116.672 68.6417 107.187L66.9908 105.489L68.6417 103.797C72.9539 99.3062 76.8964 94.4741 80.4308 89.3483L81.0842 88.4149L82.2158 88.3041C88.4271 87.8251 94.5884 86.8359 100.637 85.3466L102.942 84.7633L103.589 87.0441C108.384 103.996 106.932 116.164 99.5758 120.399C97.7898 121.411 95.7661 121.929 93.7133 121.898ZM73.7925 105.448C81.3875 112.839 88.5683 117.033 93.7133 117.033C95.0258 117.033 96.1808 116.742 97.1492 116.187C101.985 113.399 102.842 103.692 99.5058 90.6141C94.3142 91.7691 89.0642 92.5974 83.7675 93.0583C80.7208 97.4048 77.3884 101.544 73.7925 105.448Z" fill="#159ECB"/>
<path d="M102.942 55.0774L100.637 54.4999C94.5887 53.0068 88.4274 52.0137 82.2158 51.5308L81.0842 51.4316L80.4308 50.4866C76.9013 45.3625 72.9585 40.5359 68.6417 36.0549L66.9908 34.3574L68.6417 32.6658C80.775 20.2174 92.36 15.2883 99.5758 19.4533C106.937 23.6941 108.402 35.8449 103.589 52.8024L102.942 55.0774ZM83.7675 46.7883C89.3325 47.2841 94.6058 48.1183 99.5058 49.2208C102.837 36.1424 101.985 26.4533 97.1492 23.6649C92.3425 20.8824 83.295 25.1408 73.7925 34.4041C77.3858 38.3124 80.7225 42.4424 83.7675 46.7883ZM47.0642 121.898C45.0116 121.928 42.9882 121.41 41.2017 120.399C33.8342 116.164 32.3758 104.002 37.1883 87.0441L37.8183 84.7633L40.1225 85.3466C45.7458 86.7641 51.9408 87.7616 58.5442 88.3041L59.6758 88.4149L60.335 89.3483C63.8583 94.4699 67.8017 99.3058 72.1183 103.797L73.775 105.489L72.1183 107.187C62.8842 116.677 53.9825 121.898 47.0642 121.898ZM41.2717 90.6199C37.9467 103.698 38.7983 113.405 43.6283 116.193C48.4408 118.935 57.4592 114.706 66.9908 105.448C63.3972 101.539 60.0595 97.4027 56.9983 93.0641C51.708 92.5963 46.4544 91.7798 41.2717 90.6199Z" fill="#159ECB"/>
<path d="M70.3917 93.6824C66.3842 93.6824 62.2717 93.5133 58.1417 93.1691L56.9983 93.0699L56.3392 92.1249C54.0102 88.776 51.819 85.3334 49.7708 81.8058C47.7379 78.2686 45.8483 74.651 44.1067 70.9616L43.6167 69.9291L44.1067 68.8849C45.8508 65.1983 47.735 61.5816 49.7708 58.0466C51.795 54.5699 54.0058 51.0933 56.3392 47.7216L56.9983 46.7883L58.1417 46.6833C66.2902 46.0008 74.4815 46.0008 82.63 46.6833L83.7617 46.7941L84.4208 47.7274C89.0863 54.4285 93.1839 61.5075 96.6708 68.8908L97.155 69.9349L96.6708 70.9674C93.1935 78.3557 89.0955 85.4356 84.4208 92.1308L83.7617 93.0758L82.63 93.1749C78.5117 93.5074 74.3933 93.6824 70.3917 93.6824ZM59.6933 88.4091C66.8975 88.9516 73.8858 88.9516 81.0842 88.4091C85.1027 82.5245 88.6749 76.3472 91.7708 69.9291C88.6858 63.5052 85.1132 57.3271 81.0842 51.4491C73.9644 50.9008 66.8131 50.9008 59.6933 51.4491C55.661 57.325 52.0881 63.5033 49.0067 69.9291C52.1093 76.3437 55.6812 82.5205 59.6933 88.4091Z" fill="#159ECB"/>
<path d="M186.672 41.7C187.483 42.1693 188.08 42.8307 188.464 43.684C188.891 44.4947 189.104 45.3907 189.104 46.372C189.104 47.2253 188.933 48.0787 188.592 48.932C188.251 49.7853 187.803 50.4893 187.248 51.044C186.608 51.0013 185.648 50.98 184.368 50.98C183.557 50.98 182.085 51.0227 179.952 51.108L176.56 51.172C176.773 49.9347 176.261 52.8147 175.024 59.812L173.744 67.108C173.317 69.6253 172.869 72.932 172.4 77.028C171.973 80.5267 171.589 82.98 171.248 84.388C170.949 85.796 170.459 86.5 169.776 86.5C168.795 86.5 167.621 86.1587 166.256 85.476C164.933 84.7507 163.76 83.8973 162.736 82.916C161.755 81.9347 161.264 81.124 161.264 80.484C161.221 79.5027 161.733 76.6013 162.8 71.78C163.611 67.7267 164.187 64.7187 164.528 62.756C164.528 62.8413 164.869 61.0707 165.552 57.444C166.149 54.2013 166.512 52.2173 166.64 51.492L156.656 52.708C155.845 52.2813 155.184 51.6627 154.672 50.852C154.203 49.9987 153.968 49.0813 153.968 48.1C153.968 46.3933 154.629 44.8787 155.952 43.556C158.384 43.2147 161.413 43.0013 165.04 42.916C168.709 42.788 170.885 42.7027 171.568 42.66C176.048 42.532 179.312 42.4253 181.36 42.34C183.451 42.212 185.221 41.9987 186.672 41.7ZM217.481 41.7C218.291 41.7 219.379 42.0627 220.745 42.788C222.153 43.5133 223.369 44.3667 224.393 45.348C225.459 46.3293 225.993 47.1827 225.993 47.908C225.993 48.292 225.587 49.9987 224.777 53.028C223.283 58.404 222.174 63.0973 221.449 67.108C221.022 69.6253 220.574 72.932 220.104 77.028C219.678 80.5267 219.294 82.98 218.953 84.388C218.654 85.796 218.163 86.5 217.481 86.5C216.499 86.5 215.326 86.1587 213.961 85.476C212.638 84.7507 211.465 83.8973 210.441 82.916C209.459 81.9347 208.969 81.124 208.969 80.484C208.926 79.8867 209.054 78.756 209.353 77.092C209.694 75.3853 210.078 73.508 210.505 71.46L211.081 68.708C207.155 69.3053 203.294 69.732 199.497 69.988C199.07 72.8467 198.771 75.236 198.601 77.156C198.174 80.612 197.79 83.044 197.449 84.452C197.15 85.8173 196.659 86.5 195.977 86.5C194.995 86.5 193.822 86.1587 192.457 85.476C191.134 84.7507 189.961 83.8973 188.937 82.916C187.955 81.9347 187.465 81.124 187.465 80.484C187.422 79.8013 187.614 78.372 188.041 76.196C188.51 73.9773 188.809 72.548 188.937 71.908C189.107 71.0547 189.427 69.4973 189.897 67.236C190.366 64.932 190.75 62.7987 191.049 60.836L191.561 57.828C192.371 53.0493 193.118 49.1667 193.801 46.18C194.526 43.1933 195.251 41.7 195.977 41.7C196.787 41.7 197.875 42.0627 199.241 42.788C200.649 43.5133 201.865 44.3667 202.889 45.348C203.955 46.3293 204.489 47.1827 204.489 47.908C204.489 48.292 204.083 49.9987 203.273 53.028C203.102 53.7107 202.803 54.8627 202.377 56.484C201.95 58.1053 201.566 59.62 201.225 61.028C205.193 60.7293 209.033 60.324 212.745 59.812C212.83 59.2147 212.915 58.7453 213.001 58.404C213.769 53.668 214.515 49.7 215.241 46.5C215.966 43.3 216.713 41.7 217.481 41.7ZM258.77 41.7C259.58 42.1693 260.178 42.8307 260.562 43.684C260.988 44.4947 261.201 45.3907 261.201 46.372C261.201 47.2253 261.031 48.0787 260.69 48.932C260.348 49.7853 259.9 50.4893 259.346 51.044C253.842 51.1293 249.255 51.3427 245.586 51.684C244.86 54.2867 244.178 57.188 243.538 60.388C247.804 60.0467 251.41 59.5347 254.354 58.852C255.207 59.364 255.847 60.0467 256.274 60.9C256.743 61.7107 256.978 62.6067 256.978 63.588C256.978 64.484 256.786 65.3373 256.402 66.148C256.06 66.916 255.57 67.5347 254.93 68.004C254.119 68.0893 253.33 68.1533 252.562 68.196C251.794 68.2387 251.047 68.2813 250.322 68.324L242.066 68.9L240.914 74.66L240.274 77.732C242.876 77.476 245.223 77.1347 247.314 76.708C249.447 76.2387 251.687 75.5987 254.034 74.788C255.228 75.3427 256.146 76.132 256.786 77.156C257.468 78.1373 257.81 79.2253 257.81 80.42C257.81 82.1267 257.148 83.6413 255.826 84.964C253.18 85.476 250.215 85.86 246.93 86.116C243.644 86.372 240.594 86.5 237.778 86.5C237.01 86.5 236.007 86.116 234.77 85.348C233.532 84.58 232.423 83.684 231.442 82.66C230.503 81.636 230.034 80.7613 230.034 80.036C230.034 79.396 230.524 76.9213 231.506 72.612C232.231 69.4547 232.935 66.1693 233.618 62.756C234.087 60.4093 234.322 59.236 234.322 59.236C235.004 55.908 235.452 53.4973 235.666 52.004L232.978 52.196C232.167 51.7693 231.506 51.1507 230.994 50.34C230.524 49.4867 230.29 48.5693 230.29 47.588C230.29 45.8813 230.951 44.3667 232.274 43.044C238.119 42.9587 243.196 42.8307 247.506 42.66C251.858 42.4893 255.612 42.1693 258.77 41.7ZM307.55 86.884C304.521 85.1347 301.833 82.9587 299.486 80.356C297.139 77.7533 295.241 74.788 293.79 71.46L293.534 74.148C293.107 78.2867 292.681 81.38 292.254 83.428C291.87 85.476 291.315 86.5 290.59 86.5C289.609 86.5 288.435 86.1373 287.07 85.412C285.747 84.6867 284.574 83.8333 283.55 82.852C282.569 81.8707 282.078 81.06 282.078 80.42C282.078 79.3107 283.123 73.6573 285.214 63.46C285.47 62.2653 285.875 60.2387 286.43 57.38C287.027 54.4787 287.433 52.388 287.646 51.108L285.278 51.492C283.955 50.2547 283.294 48.6973 283.294 46.82C283.294 45.4973 283.657 44.132 284.382 42.724C287.838 41.828 291.337 41.38 294.878 41.38C298.633 41.38 302.11 41.8707 305.31 42.852C308.553 43.8333 311.177 45.348 313.182 47.396C315.187 49.4013 316.19 51.9187 316.19 54.948C316.19 58.4893 314.803 61.54 312.03 64.1C309.257 66.6173 305.182 68.3027 299.806 69.156C301.939 71.1613 304.073 72.7827 306.206 74.02C308.382 75.2147 311.113 76.3667 314.398 77.476C314.569 78.1587 314.654 78.9053 314.654 79.716C314.654 81.6787 314.057 83.3 312.862 84.58C311.667 85.86 309.897 86.628 307.55 86.884ZM295.006 62.948C298.377 62.6067 301.129 61.7107 303.262 60.26C305.438 58.8093 306.526 57.0813 306.526 55.076C306.526 53.796 305.886 52.7293 304.606 51.876C303.369 50.98 301.683 50.532 299.55 50.532C298.782 50.532 297.95 50.596 297.054 50.724C296.371 54.6493 296.051 56.5267 296.094 56.356C295.71 58.4467 295.347 60.644 295.006 62.948ZM349.082 41.7C349.893 42.1693 350.49 42.8307 350.874 43.684C351.301 44.4947 351.514 45.3907 351.514 46.372C351.514 47.2253 351.343 48.0787 351.002 48.932C350.661 49.7853 350.213 50.4893 349.658 51.044C344.154 51.1293 339.567 51.3427 335.898 51.684C335.173 54.2867 334.49 57.188 333.85 60.388C338.117 60.0467 341.722 59.5347 344.666 58.852C345.519 59.364 346.159 60.0467 346.586 60.9C347.055 61.7107 347.29 62.6067 347.29 63.588C347.29 64.484 347.098 65.3373 346.714 66.148C346.373 66.916 345.882 67.5347 345.242 68.004C344.431 68.0893 343.642 68.1533 342.874 68.196C342.106 68.2387 341.359 68.2813 340.634 68.324L332.378 68.9L331.226 74.66L330.586 77.732C333.189 77.476 335.535 77.1347 337.626 76.708C339.759 76.2387 341.999 75.5987 344.346 74.788C345.541 75.3427 346.458 76.132 347.098 77.156C347.781 78.1373 348.122 79.2253 348.122 80.42C348.122 82.1267 347.461 83.6413 346.138 84.964C343.493 85.476 340.527 85.86 337.242 86.116C333.957 86.372 330.906 86.5 328.09 86.5C327.322 86.5 326.319 86.116 325.082 85.348C323.845 84.58 322.735 83.684 321.754 82.66C320.815 81.636 320.346 80.7613 320.346 80.036C320.346 79.396 320.837 76.9213 321.818 72.612C322.543 69.4547 323.247 66.1693 323.93 62.756C324.399 60.4093 324.634 59.236 324.634 59.236C325.317 55.908 325.765 53.4973 325.978 52.004L323.29 52.196C322.479 51.7693 321.818 51.1507 321.306 50.34C320.837 49.4867 320.602 48.5693 320.602 47.588C320.602 45.8813 321.263 44.3667 322.586 43.044C328.431 42.9587 333.509 42.8307 337.818 42.66C342.17 42.4893 345.925 42.1693 349.082 41.7ZM383.546 70.564C383.589 71.2467 383.738 72.9747 383.994 75.748C384.293 78.4787 384.442 80.7613 384.442 82.596C384.442 84.9853 384.165 86.2653 383.61 86.436C383.439 86.4787 383.162 86.5 382.778 86.5C381.839 86.5 380.666 86.2867 379.258 85.86C377.893 85.3907 376.655 84.8147 375.546 84.132C374.479 83.4493 373.861 82.788 373.69 82.148C373.519 81.508 373.434 78.82 373.434 74.084C368.826 74.6387 365.797 74.98 364.346 75.108C363.194 78.4787 361.871 82.1693 360.378 86.18C359.226 86.436 358.159 86.564 357.178 86.564C355.471 86.564 354.021 86.1587 352.826 85.348C351.674 84.4947 350.906 83.2147 350.522 81.508L351.802 78.628C356.495 68.1747 360.549 59.4067 363.962 52.324C367.418 45.2413 369.658 41.7 370.682 41.7C371.493 41.7 372.666 41.9987 374.202 42.596C375.781 43.1933 377.189 43.9187 378.426 44.772C379.706 45.6253 380.431 46.3933 380.602 47.076C380.901 48.2707 381.306 50.7667 381.818 54.564C382.33 58.3613 382.735 62.0307 383.034 65.572L383.546 70.564ZM373.242 51.684C371.365 56.1213 369.509 60.8787 367.674 65.956C369.637 65.828 371.578 65.636 373.498 65.38C373.498 59.492 373.413 54.9267 373.242 51.684ZM418.789 80.292C417.893 81.188 416.463 82.148 414.501 83.172C412.581 84.196 410.469 85.0707 408.165 85.796C405.903 86.4787 403.791 86.82 401.829 86.82C400.335 86.82 398.565 86.1373 396.517 84.772C394.469 83.364 392.698 81.7 391.205 79.78C389.754 77.86 389.029 76.1533 389.029 74.66C389.071 70.0947 389.839 65.188 391.333 59.94C392.869 54.692 395.151 50.2333 398.181 46.564C401.253 42.8947 404.943 41.06 409.253 41.06C411.514 41.06 413.605 41.7 415.525 42.98C417.487 44.26 419.023 45.8387 420.132 47.716C421.242 49.5933 421.797 51.364 421.797 53.028C421.839 54.7773 421.242 56.1213 420.005 57.06C418.767 57.956 417.21 58.404 415.333 58.404C413.967 58.404 412.602 58.148 411.237 57.636C411.279 56.868 411.301 55.78 411.301 54.372C411.301 52.7933 411.173 51.62 410.917 50.852C410.661 50.084 410.17 49.7 409.445 49.7C407.994 49.7 406.501 51.1933 404.965 54.18C403.471 57.1667 402.191 60.836 401.125 65.188C400.101 69.54 399.546 73.5293 399.461 77.156C402.277 76.644 404.858 75.812 407.205 74.66C409.594 73.4653 411.685 72.1 413.477 70.564C415.397 71.0333 416.869 71.908 417.893 73.188C418.959 74.4253 419.493 75.812 419.493 77.348C419.493 78.2867 419.258 79.268 418.789 80.292ZM456.922 41.7C457.733 42.1693 458.33 42.8307 458.714 43.684C459.141 44.4947 459.354 45.3907 459.354 46.372C459.354 47.2253 459.183 48.0787 458.842 48.932C458.501 49.7853 458.053 50.4893 457.498 51.044C456.858 51.0013 455.898 50.98 454.618 50.98C453.807 50.98 452.335 51.0227 450.202 51.108L446.81 51.172C447.023 49.9347 446.511 52.8147 445.274 59.812L443.994 67.108C443.567 69.6253 443.119 72.932 442.65 77.028C442.223 80.5267 441.839 82.98 441.498 84.388C441.199 85.796 440.709 86.5 440.026 86.5C439.045 86.5 437.871 86.1587 436.506 85.476C435.183 84.7507 434.01 83.8973 432.986 82.916C432.005 81.9347 431.514 81.124 431.514 80.484C431.471 79.5027 431.983 76.6013 433.05 71.78C433.861 67.7267 434.437 64.7187 434.778 62.756C434.778 62.8413 435.119 61.0707 435.802 57.444C436.399 54.2013 436.762 52.2173 436.89 51.492L426.906 52.708C426.095 52.2813 425.434 51.6627 424.922 50.852C424.453 49.9987 424.218 49.0813 424.218 48.1C424.218 46.3933 424.879 44.8787 426.202 43.556C428.634 43.2147 431.663 43.0013 435.29 42.916C438.959 42.788 441.135 42.7027 441.818 42.66C446.298 42.532 449.562 42.4253 451.61 42.34C453.701 42.212 455.471 41.9987 456.922 41.7ZM507.344 82.788C511.013 84.6653 512.699 87.14 512.4 90.212C512.272 91.4067 511.525 92.5587 510.16 93.668C508.795 94.7773 507.045 95.6733 504.912 96.356C502.821 97.0813 500.645 97.444 498.384 97.444L496.976 97.38C495.013 97.252 493.307 96.1213 491.856 93.988C490.448 91.8547 489.36 89.3587 488.592 86.5C486.672 86.0307 484.688 85.1133 482.64 83.748C480.592 82.3827 478.864 80.868 477.456 79.204C476.091 77.4973 475.344 75.9613 475.216 74.596C475.045 72.2493 475.557 68.0893 476.752 62.116C477.947 56.1 479.099 51.5773 480.208 48.548C481.232 48.2493 482.107 48.0573 482.832 47.972C483.557 47.8867 484.475 47.8653 485.584 47.908C485.584 46.2867 485.968 44.8787 486.736 43.684C487.504 42.4467 488.656 41.572 490.192 41.06C493.776 41.0173 497.104 41.8067 500.176 43.428C503.248 45.0493 505.701 47.14 507.536 49.7C509.371 52.2173 510.309 54.756 510.352 57.316C510.437 62.2227 509.285 67.1507 506.896 72.1C504.507 77.0067 500.795 81.2093 495.76 84.708L496.848 87.46C499.707 86.8627 503.205 85.3053 507.344 82.788ZM501.456 55.46C500.176 54.6067 498.597 53.9027 496.72 53.348C494.843 52.7933 492.773 52.4947 490.512 52.452C490.725 53.0067 490.853 53.6467 490.896 54.372C487.952 60.772 486.117 66.7453 485.392 72.292C486.715 72.2493 487.931 72.676 489.04 73.572C490.192 74.4253 490.96 75.5133 491.344 76.836C494.245 74.02 496.571 70.6707 498.32 66.788C500.069 62.8627 501.115 59.0867 501.456 55.46ZM547.847 43.428C548.36 46.5427 548.616 49.5507 548.616 52.452C548.616 58.8093 547.592 64.612 545.544 69.86C543.496 75.108 540.829 79.2467 537.544 82.276C534.258 85.3053 530.909 86.82 527.496 86.82C525.789 86.82 523.805 86.2013 521.544 84.964C519.325 83.684 517.405 82.1693 515.784 80.42C514.162 78.628 513.352 77.0493 513.352 75.684C513.352 72.6973 513.864 67.8973 514.888 61.284C515.912 54.6707 517.128 48.932 518.536 44.068C519.944 43.3853 521.416 43.044 522.952 43.044C524.573 43.044 525.981 43.492 527.176 44.388C528.37 45.2413 529.181 46.4573 529.608 48.036C528.37 50.8947 527.154 54.9267 525.96 60.132C524.808 65.3373 524.232 69.5827 524.232 72.868C524.232 76.068 524.85 77.668 526.088 77.668C527.922 77.668 529.714 76.4947 531.464 74.148C533.213 71.7587 534.642 68.6867 535.752 64.932C536.861 61.1347 537.416 57.2947 537.416 53.412C537.416 50.5107 537.074 47.78 536.392 45.22C538.525 42.8733 540.786 41.7 543.176 41.7C544.84 41.7 546.397 42.276 547.847 43.428ZM558.914 86.5C557.933 86.5 556.759 86.1587 555.394 85.476C554.071 84.7507 552.898 83.8973 551.874 82.916C550.893 81.9347 550.402 81.124 550.402 80.484C550.359 79.8013 550.551 78.372 550.978 76.196C551.447 73.9773 551.746 72.548 551.874 71.908C552.045 71.0547 552.365 69.4973 552.834 67.236C553.303 64.932 553.687 62.7987 553.986 60.836L554.498 57.828C555.309 53.0493 556.055 49.1667 556.738 46.18C557.463 43.1933 558.189 41.7 558.914 41.7C559.725 41.7 560.813 42.0627 562.178 42.788C563.586 43.5133 564.802 44.3667 565.826 45.348C566.893 46.3293 567.426 47.1827 567.426 47.908C567.426 48.292 567.021 49.9987 566.21 53.028C564.717 58.404 563.607 63.0973 562.882 67.108C562.455 69.6253 562.007 72.932 561.538 77.028C561.111 80.5267 560.727 82.98 560.386 84.388C560.087 85.796 559.597 86.5 558.914 86.5ZM596.751 42.852C597.476 43.1507 598.202 43.8333 598.927 44.9C599.652 45.9667 600.25 47.14 600.719 48.42C601.188 49.6573 601.423 50.66 601.423 51.428C601.423 51.7267 601.402 51.94 601.359 52.068C600.719 53.8173 597.967 57.444 593.103 62.948C588.282 68.452 583.546 73.4227 578.895 77.86C584.058 76.8787 589.69 75.94 595.791 75.044C596.772 75.4707 597.54 76.2387 598.095 77.348C598.65 78.4147 598.927 79.588 598.927 80.868C598.927 82.916 598.308 84.58 597.071 85.86C589.391 86.244 583.524 86.436 579.471 86.436C574.735 86.436 572.09 86.2227 571.535 85.796C570.596 84.9853 569.679 83.6413 568.783 81.764C567.887 79.844 567.439 78.2867 567.439 77.092C567.439 76.836 567.482 76.58 567.567 76.324C567.78 75.6413 568.975 74.1693 571.151 71.908C573.327 69.604 576.527 66.34 580.751 62.116C586.127 56.74 589.626 53.156 591.247 51.364L583.887 52.004L574.991 52.836C574.095 52.3667 573.391 51.62 572.879 50.596C572.367 49.572 572.111 48.484 572.111 47.332C572.111 46.3933 572.303 45.476 572.687 44.58C573.114 43.684 573.711 42.916 574.479 42.276C575.93 42.2333 578.554 42.212 582.351 42.212C591.055 42.212 595.855 42.4253 596.751 42.852Z" fill="#F8F6F4"/>
</svg>
